<?xml version="1.0" standalone="no"?>
<!DOCTYPE svg PUBLIC "-//W3C//DTD SVG 20010904//EN"
 "http://www.w3.org/TR/2001/REC-SVG-20010904/DTD/svg10.dtd">
<svg version="1.0" xmlns="http://www.w3.org/2000/svg"
 width="663.000000pt" height="663.000000pt" viewBox="0 0 663.000000 663.000000"
 preserveAspectRatio="xMidYMid meet">
<metadata>
Created by potrace 1.14, written by Peter Selinger 2001-2017
</metadata>
<g transform="translate(0.000000,663.000000) scale(0.100000,-0.100000)"
fill="#000000" stroke="none">
<path d="M3040 6438 c-1252 -116 -2319 -974 -2703 -2173 -197 -615 -197 -1295
0 -1910 155 -482 417 -910 778 -1270 717 -715 1718 -1036 2725 -874 735 118
1414 506 1898 1082 588 702 838 1615 691 2527 -169 1050 -881 1959 -1864 2378
-309 132 -625 211 -965 242 -134 12 -424 11 -560 -2z m-210 -1429 c162 -26
327 -102 435 -201 l56 -51 -25 -25 -25 -26 -53 50 c-193 183 -544 246 -838
152 -285 -92 -473 -297 -562 -613 -28 -103 -36 -323 -14 -438 67 -354 296
-607 631 -698 109 -30 346 -33 450 -5 151 40 282 113 368 205 l47 50 0 212 0
211 -30 35 c-38 43 -41 93 -6 128 48 48 122 40 151 -16 23 -43 18 -75 -15
-113 l-30 -34 2 -518 3 -519 40 78 c155 306 484 466 878 427 338 -34 548 -207
638 -526 21 -77 22 -97 26 -646 l4 -568 -35 0 -36 0 0 503 c0 533 -7 639 -49
760 -68 196 -221 336 -426 392 -33 9 -118 19 -190 22 -109 4 -147 2 -235 -16
-299 -62 -509 -259 -592 -557 -21 -76 -22 -101 -26 -591 l-3 -513 -35 0 -34 0
0 865 c0 476 -2 865 -5 865 -3 0 -28 -18 -56 -40 -157 -124 -344 -184 -574
-184 -260 0 -470 79 -646 242 -158 147 -260 347 -290 572 -16 119 -6 334 20
435 97 375 361 622 734 690 89 16 260 18 347 4z"/>
</g>
</svg>
